<?xml version="1.0" standalone="no"?>
<!DOCTYPE svg PUBLIC "-//W3C//DTD SVG 1.0//EN" "http://www.w3.org/TR/2001/REC-SVG-20010904/DTD/svg10.dtd">
<svg xmlns="http://www.w3.org/2000/svg" xmlns:xlink="http://www.w3.org/1999/xlink" id="body_1" width="512" height="384">

<g transform="matrix(0.23261711 0 0 0.23261711 104.9017 -0)">
	<g>
        <path d="M848.1921 1625.3907L163.8249 1625.3907C 132.55681 1625.3907 102.552 1613.0507 80.33131 1591.0521L80.33131 1591.0521L24.990406 1536.2645C 14.336906 1525.7175 21.805607 1507.5576 36.796806 1507.5576L36.796806 1507.5576L975.22034 1507.5576C 990.21155 1507.5576 997.68024 1525.7175 987.02673 1536.2645L987.02673 1536.2645L931.68585 1591.0521C 909.465 1613.0507 879.4603 1625.3907 848.1921 1625.3907zM1279.1342 997.0688C 1279.1342 1115.3855 1183.2196 1211.3 1064.9028 1211.3C 1022.68884 1211.3 983.33167 1199.0834 950.16003 1178.0028C 927.9384 1350.3479 779.6439 1484.6387 601.5039 1484.6387L601.5039 1484.6387L410.513 1484.6387C 217.1692 1484.6387 58.978912 1326.4484 58.978912 1133.1046L58.978912 1133.1046L58.978912 760.0079C 58.978912 729.2403 84.15241 704.0669 114.919914 704.0669C 375.64572 720.6748 636.3714 720.6748 897.09705 704.0669C 927.8646 704.0669 953.03815 729.2403 953.03815 760.0079L953.03815 760.0079L953.03815 814.3381C 985.5989 794.3623 1023.90326 782.8374 1064.9028 782.8374C 1183.2196 782.8375 1279.1342 878.7521 1279.1342 997.0688zM1210.9926 997.0688C 1210.9926 916.3857 1145.5859 850.97906 1064.9028 850.97906C 1020.00024 850.97906 979.8366 871.24365 953.03815 903.1189L953.03815 903.1189L953.03815 1091.0187C 979.83673 1122.8939 1020.00037 1143.1586 1064.9028 1143.1586C 1145.5859 1143.1586 1210.9926 1077.752 1210.9926 997.0688z" stroke="none" fill="#000000" fill-rule="nonzero" />
        <path d="M266.3843 706.4752C 266.3843 706.4752 266.84592 705.95483 267.7402 704.9466C 268.1874 704.4424 268.7427 703.8164 269.40262 703.0724C 270.05392 702.319 270.756 701.4232 271.57593 700.44366C 274.78864 696.47076 279.29892 690.45685 283.77063 682.32477C 288.19913 674.1753 292.60513 663.8804 295.46313 651.7378C 296.84744 645.6621 297.98703 639.1829 298.43292 632.3454C 298.67664 628.9324 298.76263 625.4423 298.7589 621.899C 298.6662 618.3507 298.5042 614.7471 298.0519 611.1153C 297.6698 607.4798 297.01852 603.8292 296.28952 600.1651C 295.41373 596.527 294.55402 592.8487 293.2827 589.2562C 293.00592 588.34674 292.6763 587.45215 292.32812 586.56244C 291.9926 585.6718 291.65582 584.77765 291.3178 583.8798C 290.55402 582.12274 289.8676 580.32935 288.99182 578.6104C 288.20374 576.8532 287.24652 575.1709 286.34982 573.4585L286.34982 573.4585L286.18143 573.1374C 286.25034 573.28827 285.90854 572.5728 286.3145 573.4351L286.3145 573.4351L286.2047 573.24634L285.7648 572.49036L284.88242 570.97424C 284.2933 569.96173 283.7019 568.9456 283.1087 567.926L283.1087 567.926L282.6666 567.17694L282.25848 566.5952L281.44687 565.42993C 280.91537 564.65155 280.38217 563.87054 279.84726 563.0869L279.84726 563.0869L279.45166 562.49493L278.97955 561.8552L278.03577 560.57355C 277.40897 559.7186 276.78027 558.86096 276.14957 558.0007C 274.85776 556.28705 273.43756 554.58716 272.08676 552.86725C 270.69037 551.1464 269.19647 549.42883 267.75186 547.69696C 261.77075 540.79254 255.07796 533.77094 248.01126 526.28107C 240.94997 518.79065 233.53957 510.79807 226.28656 501.80936L226.28656 501.80936L223.58316 498.40955L220.93117 494.84964C 220.05316 493.64703 219.15077 492.48633 218.29207 491.24033L218.29207 491.24033L215.72697 487.47174L214.44597 485.57895L214.12837 485.10336L213.54077 484.13327L213.02057 483.27396L210.93668 479.83176L209.89308 478.10776C 209.72829 477.85046 209.52939 477.48206 209.32979 477.10916L209.32979 477.10916L208.73878 476.01306L206.39058 471.60648L205.22668 469.39087C 204.86679 468.66766 204.55748 467.97476 204.22098 467.26398L204.22098 467.26398L202.26418 463.00577L201.29758 460.86728L200.42828 458.6898L198.69849 454.32248C 198.09729 452.87247 197.59909 451.38828 197.10028 449.9022L197.10028 449.9022L195.59518 445.4418C 194.61029 442.4595 193.86998 439.4052 193.00989 436.379C 189.86038 424.20068 188.07549 411.633 187.67369 398.9999C 187.3218 386.3687 188.2851 373.6648 190.75449 361.2485C 191.97789 355.0178 193.51299 348.9421 195.47879 342.8342L195.47879 342.8342L196.77258 338.9089L198.45218 334.2855L199.30157 331.9892L200.16107 329.878L201.90337 325.6742C 204.34486 320.1843 206.87326 314.7981 209.58656 309.6891C 212.28566 304.53638 215.12556 299.6378 217.95847 294.8198C 223.70256 285.2819 229.57066 276.34 235.27406 267.8018C 238.07996 263.5864 240.86226 259.4061 243.61847 255.26529C 244.29347 254.24078 244.96696 253.21869 245.63876 252.19919C 246.29187 251.18599 246.94336 250.1753 247.59326 249.16719C 248.26115 248.133 248.92737 247.10149 249.59177 246.0727C 250.20796 245.0992 250.82257 244.12819 251.43556 243.1599C 252.67506 241.2472 253.85236 239.2141 255.05696 237.26C 256.22147 235.2885 257.37915 233.3284 258.52985 231.3801C 259.61224 229.4224 260.72635 227.4778 261.76926 225.5354C 262.75964 223.585 263.86496 221.6677 264.79846 219.7362C 272.58545 204.3327 277.73135 189.28401 279.46295 174.99991C 279.75836 173.20941 279.84695 171.4458 279.98154 169.68651C 280.04645 168.8719 280.11124 168.0619 280.17563 167.2563C 280.18332 166.2805 280.19092 165.3101 280.19864 164.3454C 280.19513 163.58969 280.19183 162.8384 280.18832 162.0916C 280.14343 161.2621 280.09863 160.4375 280.05423 159.6179C 279.91013 157.97911 279.78833 156.3403 279.57144 154.7251C 279.15805 151.4924 278.53604 148.3352 277.75134 145.2879C 276.95444 142.2436 275.96295 139.3304 274.91904 136.5124C 272.80124 130.8799 270.04404 125.888405 267.15244 121.448105C 264.20435 117.05121 260.99454 113.2916 257.75684 110.19481C 251.25034 104.01391 244.72154 100.45611 240.03134 98.56781C 238.86264 98.06221 237.79935 97.69741 236.87454 97.37281C 235.95284 97.02651 235.16154 96.77971 234.51744 96.60841C 233.22374 96.23661 232.55614 96.044716 232.55614 96.044716C 232.55614 96.044716 233.25093 95.99232 234.59694 95.890816C 235.27644 95.826515 236.11984 95.78152 237.12604 95.785416C 238.13754 95.755615 239.31213 95.76182 240.63904 95.86892C 243.30734 96.00242 246.61914 96.42242 250.44844 97.41932C 254.28804 98.381516 258.63644 99.95602 263.24954 102.36082C 272.47873 107.119415 282.67093 115.45402 291.09424 127.74492C 295.33823 133.86421 299.00705 141.00511 301.90164 149.04512C 302.63074 151.05432 303.28015 153.13052 303.86444 155.26132C 304.13495 156.33562 304.40723 157.41643 304.68115 158.50372C 304.92114 159.68472 305.16266 160.87262 305.40546 162.06752C 305.58725 163.06091 305.77014 164.06012 305.95407 165.06493L305.95407 165.06493L306.02097 165.43373C 306.01425 165.25963 306.06836 165.87534 306.07126 165.89113L306.07126 165.89113L306.09665 166.10033L306.19806 166.93933L306.39987 168.62762C 306.66696 170.88782 306.9691 173.18753 307.05298 175.50462C 307.65536 184.79892 307.07968 194.52382 305.48016 204.28772C 303.88397 214.05882 301.27325 223.87073 297.91467 233.54301C 294.56058 243.24542 290.49576 252.73932 285.89447 262.18033C 285.30966 263.37393 284.72336 264.57083 284.13538 265.77084C 283.56918 266.90063 283.00146 268.03345 282.43237 269.16904C 281.8358 270.32544 281.23776 271.48474 280.63828 272.64685C 280.0348 273.78934 279.42957 274.93466 278.82297 276.08276C 276.39627 280.67767 273.93698 285.21317 271.43738 289.73218C 266.49118 298.7599 261.51157 307.671 256.92017 316.5789C 254.65067 321.01797 252.40736 325.46588 250.40616 329.91418C 248.30266 334.34918 246.47975 338.7912 244.73096 343.23767L244.73096 343.23767L243.51936 346.57257L242.89986 348.23608L242.39845 349.766L241.38275 352.8085L240.25266 356.6523L239.68326 358.6084L239.54076 359.0976C 239.78935 358.2721 239.58206 358.98828 239.62506 358.858L239.62506 358.858L239.57666 359.0662L239.38255 359.8989L238.58595 363.2248L238.17245 364.88458C 238.04735 365.4416 237.95886 366.00888 237.84915 366.57037L237.84915 366.57037L237.21075 369.94608C 235.64986 378.9799 234.94536 388.25098 235.25296 397.52237C 235.48557 406.79608 236.76776 416.05377 238.85736 425.06107C 239.46306 427.28986 239.94186 429.55768 240.62076 431.75946L240.62076 431.75946L241.62036 435.06717C 241.94597 436.17236 242.26646 437.27927 242.68275 438.34857L242.68275 438.34857L243.84555 441.58878L244.42085 443.21057L245.08385 444.79166L246.40065 447.95535L247.04614 449.52637L247.70834 450.92175L249.00664 453.72635L249.32603 454.43066C 249.42653 454.65958 249.52933 454.89188 249.71193 455.21036L249.71193 455.21036L250.67664 456.97977L252.60304 460.51248L253.08394 461.39438L253.20413 461.61478C 253.52583 462.16467 252.90154 461.11618 253.00653 461.28848L253.00653 461.28848L253.23174 461.6569L254.12004 463.1376L255.88574 466.1032C 256.47925 467.09192 257.16376 468.0712 257.79565 469.0559L257.79565 469.0559L259.72876 472.00662L261.80466 474.94772C 267.30865 482.82422 273.55804 490.6523 279.92224 498.7058C 286.28894 506.75412 292.82263 515.0183 298.86954 523.8138C 300.36624 526.05426 301.87234 528.234 303.32315 530.4859C 304.73456 532.7985 306.16885 535.0363 307.51764 537.3668C 308.18005 538.5467 308.84033 539.72314 309.49863 540.8957L309.49863 540.8957L310.47934 542.6506L310.96735 543.5257L311.45816 544.4893C 312.10007 545.7805 312.74005 547.0675 313.37787 548.35034L313.37787 548.35034L314.31738 550.27167L314.7826 551.2295L315.1333 552.0592C 316.1172 554.429 317.0941 556.7828 318.0644 559.1196C 319.0102 561.66846 319.92358 564.1998 320.6643 566.7567C 321.4884 569.2877 322.0855 571.8532 322.737 574.3706C 323.0352 575.6361 323.2801 576.9068 323.5379 578.1665C 323.8026 579.425 324.0421 580.6802 324.2219 581.939C 325.1038 586.9467 325.508 591.90234 325.7675 596.73285C 325.89328 601.5715 325.9296 606.29364 325.51318 610.87933C 324.2035 629.2481 319.0073 645.2139 312.61957 658.10754C 306.16916 671.0283 298.44736 680.9022 291.36737 688.0513C 287.80106 691.6163 284.46866 694.58844 281.37637 696.92285C 280.61447 697.51196 279.88098 698.07916 279.17667 698.6238C 278.44687 699.1344 277.74698 699.62396 277.07788 700.0921C 276.40808 700.5515 275.76898 700.9897 275.1609 701.4067C 274.53207 701.8003 273.9353 702.1737 273.37167 702.52655C 271.14447 703.96924 269.37677 704.87396 268.18506 705.50977C 266.9973 706.1464 266.3843 706.4752 266.3843 706.4752z" stroke="none" fill="#000000" fill-rule="nonzero" />
        <path d="M512.7908 723.9415C 512.7908 723.9415 512.36475 723.1013 511.53918 721.47345C 510.7212 719.84235 509.46817 717.43823 507.9238 714.26556C 506.3567 711.10144 504.4414 707.19037 502.2565 702.5605C 500.0536 697.9349 497.5755 692.5928 494.9146 686.5418C 492.19562 680.5123 489.39822 673.7367 486.4487 666.2826C 483.4618 658.8385 480.5888 650.6267 477.73 641.7142C 474.8678 632.80035 472.30283 623.1133 470.0603 612.69745C 469.78452 611.39307 469.5073 610.0803 469.2284 608.7593C 468.9881 607.42065 468.7463 606.07367 468.5028 604.7184C 468.2753 603.42566 468.0463 602.12506 467.8158 600.8167C 467.6159 599.4065 467.4145 597.98804 467.212 596.5611C 467.0158 595.1298 466.81882 593.6903 466.6204 592.2426C 466.4646 590.81793 466.30768 589.3852 466.15018 587.94464C 465.79947 585.0634 465.59308 582.13074 465.37286 579.161C 464.54355 567.2815 464.67026 554.7244 466.12668 541.66583C 466.5196 538.4047 466.86447 535.0991 467.4994 531.79364C 467.7949 530.1386 468.04688 528.46875 468.38828 526.8029C 468.75006 525.13794 469.11328 523.46643 469.47797 521.7884L469.47797 521.7884L470.03326 519.26337L470.70047 516.74646C 471.15088 515.06305 471.60297 513.3735 472.05658 511.67776C 472.54648 509.98868 473.11227 508.30865 473.6446 506.61215C 474.19528 504.92056 474.69818 503.20596 475.3623 501.53046C 476.6223 498.15945 477.85492 494.73987 479.40842 491.40515C 480.1802 489.73834 480.8561 488.02097 481.725 486.37924C 482.5712 484.72525 483.42 483.06613 484.2714 481.40186L484.2714 481.40186L484.9147 480.15256L485.076 479.83997L485.51797 479.10565L485.82828 478.56906L487.07288 476.41867C 487.91208 474.97577 488.75366 473.52856 489.59778 472.07727C 490.69907 470.40958 491.8036 468.73706 492.91098 467.05988L492.91098 467.05988L494.59518 464.5453C 495.16037 463.692 495.72348 462.9976 496.2905 462.2144C 497.4279 460.68988 498.56808 459.1612 499.7116 457.62848C 500.8431 456.0785 502.11102 454.66858 503.31482 453.17657C 504.54462 451.71637 505.74323 450.19766 507.0433 448.80038C 508.341 447.39587 509.642 445.98798 510.9458 444.5767C 512.2351 443.1399 513.5997 441.80148 514.9675 440.45618C 516.3358 439.10858 517.7077 437.75787 519.0825 436.40417C 520.502 435.11658 521.92444 433.826 523.35034 432.53268C 524.77625 431.2328 526.21967 429.95288 527.70776 428.7462C 539.46185 418.8036 552.1918 409.99957 565.41223 402.1862C 572.0192 398.231 578.77075 394.6201 585.56775 391.04678C 587.27496 390.1872 588.9838 389.3264 590.69507 388.46457L590.69507 388.46457L593.39404 387.12186L595.86694 385.92834L600.8306 383.53543L606.0573 381.09055C 633.56464 368.34024 660.9803 357.52295 685.9363 344.53775C 692.20355 341.33206 698.25116 337.94986 704.14307 334.42545L704.14307 334.42545L708.5149 331.74286L709.06177 331.40817C 708.9944 331.45416 709.59814 331.06866 708.98004 331.46918L708.98004 331.46918L709.2717 331.2765L710.44086 330.50858L712.78235 328.97906C 716.15607 326.84445 718.37695 325.14175 721.0192 323.31555C 731.63306 315.48355 741.62225 306.76614 749.9677 297.21924C 766.9047 278.19284 777.3463 256.01465 778.6219 233.49164C 778.9384 227.83754 778.7347 222.13524 778.0515 216.46114C 777.3526 210.78964 776.1865 205.14594 774.6205 199.59734C 773.0412 194.05223 771.0431 188.61234 768.73785 183.31483C 766.4224 178.02014 763.74854 172.89743 760.87115 167.92883C 755.08966 157.99763 748.1973 148.90303 740.79785 140.68803C 737.1011 136.57344 733.25256 132.69414 729.30005 129.06033C 728.3074 128.15764 727.33307 127.237236 726.3165 126.380936C 725.37213 125.56503 724.4323 124.75294 723.4973 123.94494C 721.2508 122.16774 719.04443 120.38294 716.8656 118.60934C 708.8623 112.30964 700.1747 106.55134 691.8218 101.40553C 683.46075 96.18903 675.0633 91.86673 667.14996 87.732735C 651.1946 79.69054 636.67053 73.41773 624.64154 68.30483C 612.5244 63.25923 603.004 59.29483 596.51294 56.591732C 590.00793 53.84143 586.53864 52.374634 586.53864 52.374634C 586.53864 52.374634 587.47144 52.506935 589.27856 52.763233C 591.0843 53.027134 593.774 53.379234 597.25946 53.927933C 600.7477 54.474033 605.05646 55.113132 610.09924 55.999134C 615.15576 56.827633 620.94763 57.891434 627.4351 59.153934C 640.4085 61.694733 656.1361 65.20174 674.0219 70.665535C 676.2632 71.32633 678.5199 72.09344 680.8161 72.850235C 683.1105 73.615135 685.4454 74.384636 687.7849 75.271835C 690.1349 76.138336 692.5188 77.017235 694.9354 77.90823C 697.33484 78.875534 699.7666 79.855934 702.2302 80.84914C 712.0755 84.98614 722.09485 89.85893 732.7279 96.02963C 735.136 97.47693 737.5638 98.946434 739.9983 100.45623L739.9983 100.45623L740.4559 100.73803L740.6849 100.87903L741.18176 101.224525L742.14734 101.873024L744.0866 103.17732C 745.3943 104.03662 746.6595 104.962524 747.947 105.87622C 753.0785 109.55382 758.1442 113.54732 763.0993 117.87032C 772.9983 126.52933 782.3034 136.64513 790.7414 148.10942C 794.963 153.84251 798.8728 159.97862 802.4482 166.47342C 806.032 172.96391 809.22955 179.84492 811.93835 187.08572C 814.6603 194.32053 816.87164 201.92752 818.41 209.83682C 819.95795 217.74013 820.87085 225.94643 820.907 234.30412C 820.87146 236.41843 820.88306 238.43462 820.78546 240.64832L820.78546 240.64832L820.57294 244.06831C 820.4976 245.19481 820.41724 246.45172 820.32654 247.21611L820.32654 247.21611L820.06213 249.8551L819.9296 251.1765L819.7349 252.4466L819.60443 253.2307C 819.2473 255.3231 818.88934 257.4194 818.53046 259.5195C 818.22186 261.6381 817.6224 263.6733 817.1362 265.7508C 816.5966 267.80838 816.1654 269.9197 815.51074 271.9422C 814.18866 275.9797 812.98846 280.1139 811.2874 284.0069C 808.2133 291.9837 804.2003 299.4723 799.904 306.764C 797.6212 310.2965 795.4046 313.9242 792.8806 317.26602C 791.636 318.95303 790.4455 320.70633 789.1405 322.33832L789.1405 322.33832L785.2078 327.2315C 783.91534 328.89142 782.51263 330.4204 781.1265 331.97992C 779.72595 333.5198 778.36725 335.1202 776.91956 336.6083C 774.00726 339.56052 771.1462 342.6065 768.0784 345.3774C 762.0767 351.144 755.69525 356.2858 749.07886 361.3475C 735.7856 371.2871 721.9194 379.499 707.84235 386.7991C 679.68536 401.3522 651.17725 411.9992 624.9705 423.248L624.9705 423.248L620.13904 425.3125L615.1165 427.532L612.60583 428.64313L610.3602 429.67242L605.62146 431.83862C 599.38257 434.79193 593.19714 437.76282 587.28815 440.9735C 575.34503 447.2441 564.21027 454.1683 554.04297 461.6871C 543.8182 469.1661 534.9045 477.5161 527.1343 486.3626C 526.66345 486.9072 526.10876 487.47662 525.70575 487.9986L525.70575 487.9986L524.4493 489.57278C 523.599 490.61768 522.7511 491.6598 521.90576 492.6988C 520.95496 494.0572 520.0071 495.4116 519.0619 496.7621L519.0619 496.7621L517.6418 498.8007L517.2873 499.3094C 517.3561 499.18628 516.8825 499.944 517.3974 499.0977L517.3974 499.0977L517.2565 499.3252L516.69244 500.2342C 515.9351 501.4455 515.18024 502.6532 514.4279 503.857C 513.64545 505.04538 513.03314 506.33728 512.3241 507.56668C 511.6668 508.82578 510.8776 510.0117 510.2787 511.3014C 509.64407 512.5746 509.01147 513.84357 508.3812 515.1082C 503.3913 525.2973 500.0449 536.1247 497.45898 546.8802C 494.8618 557.6578 493.5565 568.50037 492.83377 579.0283C 492.66608 581.66315 492.48157 584.27734 492.44238 586.875C 492.40347 588.1748 492.36478 589.4675 492.32648 590.753C 492.32388 592.0108 492.32156 593.2615 492.31888 594.505C 492.31888 595.7524 492.31857 596.9926 492.31857 598.2255C 492.36707 599.5531 492.41528 600.8728 492.4633 602.1845C 492.4871 602.84033 492.511 603.4942 492.5348 604.146L492.5348 604.146L492.5633 605.1231L492.5769 605.61053C 492.59702 605.8491 492.5566 605.55945 492.56592 605.67395L492.56592 605.67395L492.57843 605.90674C 492.64413 607.1494 492.70972 608.38434 492.77484 609.6113C 493.28424 619.44385 494.39975 628.8059 495.57315 637.65173C 498.01694 655.3344 501.26135 670.81726 503.96115 683.6013C 506.78564 696.4177 509.00455 706.48773 510.51764 713.3537C 512.0004 720.2589 512.7908 723.9415 512.7908 723.9415z" stroke="none" fill="#000000" fill-rule="nonzero" />
        <path d="M780.1026 711.9634C 780.1026 711.9634 776.7498 711.2763 770.4633 709.9881C 767.3313 709.3262 763.5009 708.19977 758.937 706.9586C 756.6521 706.33124 754.294 705.4831 751.7165 704.6535C 749.1585 703.7891 746.4122 702.9046 743.60626 701.7493C 732.2192 697.4743 718.64703 691.22565 704.0735 682.08264C 689.5115 672.9523 673.9844 660.8898 658.9403 645.46936C 657.08234 643.52515 655.2504 641.5129 653.405 639.47095C 652.4815 638.4487 651.5534 637.42145 650.6209 636.3892C 649.7331 635.3184 648.8411 634.24243 647.9449 633.16144C 646.1642 630.98706 644.337 628.80634 642.54456 626.5623C 640.8248 624.2589 639.08984 621.935 637.33984 619.59143C 635.5444 617.27014 633.9321 614.7924 632.27905 612.3071C 631.45374 611.06195 630.62537 609.8117 629.79333 608.55664L629.79333 608.55664L629.1688 607.61285L628.85614 607.1401C 628.84247 607.13696 628.39844 606.31287 628.5225 606.55457L628.5225 606.55457L628.3862 606.32776L627.29285 604.50934C 625.83527 602.0786 624.36664 599.6295 622.887 597.16266C 621.39844 594.34607 619.89923 591.5093 618.38934 588.65283C 616.80865 585.75305 615.5654 582.92816 614.2072 580.03705C 613.54144 578.59204 612.8734 577.14246 612.2033 575.68823C 611.5143 574.2395 610.9704 572.73175 610.3445 571.2467C 609.1543 568.2557 607.8594 565.2709 606.7412 562.2058C 605.6689 559.12103 604.59064 556.01843 603.5062 552.899C 599.4397 540.3258 596.2465 527.1408 594.06683 513.5222C 591.83405 499.90692 590.86633 485.83643 590.96954 471.5708C 591.1215 457.3051 592.4177 442.8297 595.03827 428.4119L595.03827 428.4119L596.11926 423.0162L597.28125 417.4291L598.46716 412.5035L599.84564 407.1538C 601.63855 400.3328 603.5159 393.8146 605.24506 387.5509C 608.6725 375.02 611.38947 363.4531 611.9169 352.9244L611.9169 352.9244L611.9704 350.97382L612.0059 349.9989L612.02515 349.5114C 612.0344 349.90143 612.0178 348.2939 612.04895 350.3243L612.04895 350.3243L612.03766 350.0068L611.85974 344.9274C 611.8483 340.9999 611.3378 339.4828 611.12317 337.1975L611.12317 337.1975L611.0334 336.3832C 611.0049 336.11142 610.9913 335.8533 610.9017 335.51282L610.9017 335.51282L610.483 333.58972C 610.2049 332.30783 609.94995 331.0215 609.70184 329.73242C 609.42175 328.4464 608.96936 327.1769 608.62354 325.89523C 608.2285 324.61972 607.9511 323.32535 607.4815 322.05774C 603.96204 311.88425 598.6806 301.88904 592.0994 292.46094C 588.8687 287.71375 585.2033 283.16385 581.40155 278.72003C 579.52295 276.47964 577.45667 274.36063 575.5071 272.17075C 573.4663 270.04395 571.3512 267.97565 569.2898 265.87344C 567.12 263.85153 564.9566 261.83575 562.8005 259.82663C 560.55096 257.89923 558.3714 255.90694 556.08795 254.03293C 554.9393 253.10193 553.79236 252.17262 552.6481 251.24503L552.6481 251.24503L550.938 249.84473L550.7247 249.66933C 550.6105 249.57823 550.9819 249.84343 550.71014 249.64403L550.71014 249.64403L550.2327 249.27803L549.27844 248.54663C 548.00684 247.57193 546.73785 246.59903 545.47125 245.62813L545.47125 245.62813L543.58356 244.18643L541.8088 242.88434C 539.43146 241.14354 537.1449 239.42964 534.6186 237.65784C 532.1509 235.89604 529.70416 234.13464 527.1872 232.41644C 524.6957 230.68784 522.20917 228.96744 519.67847 227.27135C 517.15594 225.55734 514.6465 223.85214 512.1501 222.15614C 502.0889 215.38425 492.0373 208.65305 482.29398 201.74445C 462.78238 187.96465 444.6244 173.26535 429.96378 157.12225C 422.55676 148.84746 416.32697 140.52905 411.05197 132.08815C 405.85257 123.63095 401.52838 115.26305 398.28397 107.05445C 395.03406 98.85695 392.65796 90.93285 391.19748 83.47525C 389.75357 76.010254 389.07388 69.06205 389.07587 62.81025C 388.98026 50.28235 391.31827 40.75665 393.32797 34.598747C 394.3535 31.507847 395.28247 29.211246 395.97668 27.693148C 396.64618 26.174747 396.9917 25.391148 396.9917 25.391148C 396.9917 25.391148 396.883 26.239948 396.6729 27.884447C 396.42792 29.512247 396.2437 31.963947 396.0476 35.10605C 396.0084 36.688347 395.8875 38.431747 395.96042 40.36295C 395.99213 41.32715 395.95462 42.32335 396.01483 43.368248C 396.07443 44.408047 396.13632 45.490646 396.20053 46.61525C 396.57712 51.09895 397.26993 56.188248 398.58224 61.72485C 399.92645 67.25415 401.79056 73.23985 404.44824 79.472946C 407.18353 85.678345 410.46475 92.20515 414.69653 98.73945C 416.80212 102.008446 419.10263 105.29435 421.54614 108.60285C 424.04456 111.882355 426.71976 115.163055 429.59384 118.40995C 432.51224 121.62475 435.53653 124.87035 438.78384 128.03474C 442.01166 131.17674 445.54346 134.32214 449.08154 137.22334C 456.36383 143.23804 464.55466 149.10664 473.34415 154.71524C 482.13724 160.35794 491.54926 165.87694 501.48953 171.43243C 511.63123 177.00664 522.04956 182.73294 532.6983 188.58594C 538.1029 191.56343 543.6025 194.65063 549.1442 197.91133C 554.7083 201.15073 560.24365 204.47903 566.0736 208.24432L566.0736 208.24432L568.2419 209.62692L570.24976 210.95563C 571.57916 211.83862 572.91144 212.72343 574.24615 213.60992L574.24615 213.60992L575.24744 214.27513L575.7487 214.60793C 575.6406 214.52432 576.175 214.90633 576.21924 214.93843L576.21924 214.93843L576.48486 215.12703L578.6103 216.64243C 580.0249 217.66043 581.44226 218.68042 582.86206 219.70212C 585.6907 221.76591 588.4402 223.98071 591.2466 226.13422C 593.9999 228.36711 596.7235 230.67662 599.45526 232.98741C 602.10486 235.42001 604.7925 237.82242 607.42456 240.32271C 609.9919 242.91281 612.63995 245.4163 615.1501 248.121C 620.16 253.5323 625.0506 259.1801 629.57587 265.2917C 638.63135 277.4581 646.60754 291.17517 652.10394 306.48038C 652.82025 308.37228 653.35376 310.36697 653.97644 312.31168C 654.55475 314.2783 655.2172 316.20956 655.70544 318.21448L655.70544 318.21448L657.04443 324.28088L657.68634 327.322C 657.80316 327.804 657.87494 328.38898 657.9525 328.9568L657.9525 328.9568L658.1812 330.6615C 658.48083 332.9359 658.758 335.2159 659.012 337.4962C 659.3424 340.042 659.29443 341.3667 659.3894 343.142L659.3894 343.142L659.594 348.2204L659.6068 348.5378C 659.6408 350.77982 659.6109 349.384 659.6158 349.98572L659.6158 349.98572L659.5963 350.76843L659.5542 352.33392L659.4513 355.4641C 658.48737 372.0647 654.5962 386.9974 650.6849 400.4082C 648.76556 406.8378 646.8504 413.2548 644.94055 419.6529L644.94055 419.6529L643.68634 424.0225L642.39264 428.8396C 641.71124 431.7141 641.03125 434.5836 640.3524 437.4474C 637.8156 449.21518 636.1897 461.1326 635.4781 473.00388C 634.7357 484.87216 634.8466 496.70947 635.91626 508.29846C 636.9465 519.8923 638.7823 531.2449 641.25745 542.2435C 641.94525 544.97754 642.6293 547.6967 643.3096 550.4003C 644.00116 553.10504 644.86475 555.73883 645.62317 558.39716C 646.0326 559.7148 646.36096 561.06177 646.8324 562.3483C 647.28357 563.64435 647.7338 564.9362 648.1824 566.22394C 649.0849 568.7841 649.9062 571.45496 650.8912 573.78864C 651.83966 576.21265 652.7818 578.61993 653.7171 581.01013C 654.9027 583.6309 656.0801 586.23285 657.2483 588.8151L657.2483 588.8151L658.1209 590.7492L658.2296 590.9905C 658.438 591.3868 658.0677 590.72296 658.1468 590.8697L658.1468 590.8697L658.36847 591.307L658.8113 592.1808C 659.4015 593.347 659.98895 594.5086 660.5743 595.66547C 661.76385 597.97125 662.83386 600.3315 664.1363 602.53595C 665.385 604.77954 666.62317 607.0043 667.8503 609.2092C 669.1806 611.36035 670.49927 613.4923 671.80536 615.60443C 672.4648 616.66144 673.12115 617.71344 673.77435 618.76044C 674.4747 619.77606 675.17175 620.78674 675.8652 621.79254C 677.2478 623.8187 678.61646 625.8248 679.9712 627.81036C 691.2485 643.4087 703.38617 656.6468 715.1238 667.49536C 726.86017 678.3688 738.2215 686.80225 747.9535 693.28784C 750.34607 694.99426 752.72107 696.41266 754.9464 697.7885C 757.17413 699.14984 759.23224 700.5542 761.2137 701.666C 763.2019 702.79553 765.04126 703.8407 766.7267 704.7981C 768.4205 705.7652 769.9397 706.6979 771.38586 707.3979C 777.0709 710.3754 780.1026 711.9634 780.1026 711.9634z" stroke="none" fill="#000000" fill-rule="nonzero" />
	</g>
</g>
</svg>